<svg width="36" height="36" viewBox="0 0 36 36" fill="none" xmlns="http://www.w3.org/2000/svg">
<g clip-path="url(#clip0_68_16)">
<path d="M24 30C20.6876 30 18 27.3158 18 24H12C12 30.6282 17.3718 36 24 36C30.6282 36 36 30.6282 36 24H30C30 27.3158 27.3124 30 24 30Z" fill="white"/>
<path d="M6.00336 23.9966C6.00336 27.3124 8.68757 30 12.0034 30V36C5.37514 36 0 30.6282 0 23.9966C0 17.3651 5.37514 11.9966 12.0034 11.9966V17.9966C8.68757 17.9966 6.00336 20.6842 6.00336 23.9966Z" fill="white"/>
<path d="M12 6C15.3124 6 18 8.68421 18 12H24C24 5.37178 18.6282 0 12 0C5.37514 0 0 5.37178 0 12H6C6 8.68421 8.68757 6 12 6Z" fill="white"/>
<path d="M30 12C30 15.3124 27.3158 18 24 18V24C30.6282 24 36 18.6282 36 12C36 5.37178 30.6282 0 24 0V6C27.3158 6 30 8.68757 30 12Z" fill="white"/>
</g>
<defs>
<clipPath id="clip0_68_16">
<rect width="36" height="36" fill="white"/>
</clipPath>
</defs>
</svg>
